<?xml version="1.0" encoding="utf-8" standalone="no"?>
<!DOCTYPE svg PUBLIC "-//W3C//DTD SVG 1.1//EN"
  "http://www.w3.org/Graphics/SVG/1.1/DTD/svg11.dtd">
<svg height="432pt" version="1.1" viewBox="0 0 432 432" width="432pt" xmlns="http://www.w3.org/2000/svg" xmlns:xlink="http://www.w3.org/1999/xlink">
 <metadata>
  <rdf:RDF xmlns:cc="http://creativecommons.org/ns#" xmlns:dc="http://purl.org/dc/elements/1.1/" xmlns:rdf="http://www.w3.org/1999/02/22-rdf-syntax-ns#">
   <cc:Work>
    <dc:type rdf:resource="http://purl.org/dc/dcmitype/StillImage"/>
    <dc:date>2021-07-08T14:07:22.167775</dc:date>
    <dc:format>image/svg+xml</dc:format>
    <dc:creator>
     <cc:Agent>
      <dc:title>Matplotlib v3.4.2, https://matplotlib.org/</dc:title>
     </cc:Agent>
    </dc:creator>
   </cc:Work>
  </rdf:RDF>
 </metadata>
 <defs>
  <style type="text/css">*{stroke-linecap:butt;stroke-linejoin:round;}</style>
 </defs>
 <g id="figure_1">
  <g id="patch_1">
   <path d="M 0 432 
L 432 432 
L 432 0 
L 0 0 
z
" style="fill:none;"/>
  </g>
  <g id="axes_1">
   <g id="patch_2">
    <path d="M 58.32 378 
L 384.48 378 
L 384.48 51.84 
L 58.32 51.84 
z
" style="fill:#ffffff;"/>
   </g>
   <g id="matplotlib.axis_1">
    <g id="xtick_1">
     <g id="line2d_1">
      <defs>
       <path d="M 0 0 
L 0 3.5 
" id="medeec289e9" style="stroke:#000000;stroke-width:0.8;"/>
      </defs>
      <g>
       <use style="stroke:#000000;stroke-width:0.8;" x="58.32" xlink:href="#medeec289e9" y="378"/>
      </g>
     </g>
     <g id="text_1">
      <!-- 0.0 -->
      <g transform="translate(50.368438 392.598437)scale(0.1 -0.1)">
       <defs>
        <path d="M 2034 4250 
Q 1547 4250 1301 3770 
Q 1056 3291 1056 2328 
Q 1056 1369 1301 889 
Q 1547 409 2034 409 
Q 2525 409 2770 889 
Q 3016 1369 3016 2328 
Q 3016 3291 2770 3770 
Q 2525 4250 2034 4250 
z
M 2034 4750 
Q 2819 4750 3233 4129 
Q 3647 3509 3647 2328 
Q 3647 1150 3233 529 
Q 2819 -91 2034 -91 
Q 1250 -91 836 529 
Q 422 1150 422 2328 
Q 422 3509 836 4129 
Q 1250 4750 2034 4750 
z
" id="DejaVuSans-30" transform="scale(0.015625)"/>
        <path d="M 684 794 
L 1344 794 
L 1344 0 
L 684 0 
L 684 794 
z
" id="DejaVuSans-2e" transform="scale(0.015625)"/>
       </defs>
       <use xlink:href="#DejaVuSans-30"/>
       <use x="63.623047" xlink:href="#DejaVuSans-2e"/>
       <use x="95.410156" xlink:href="#DejaVuSans-30"/>
      </g>
     </g>
    </g>
    <g id="xtick_2">
     <g id="line2d_2">
      <g>
       <use style="stroke:#000000;stroke-width:0.8;" x="123.552" xlink:href="#medeec289e9" y="378"/>
      </g>
     </g>
     <g id="text_2">
      <!-- 0.2 -->
      <g transform="translate(115.600438 392.598437)scale(0.1 -0.1)">
       <defs>
        <path d="M 1228 531 
L 3431 531 
L 3431 0 
L 469 0 
L 469 531 
Q 828 903 1448 1529 
Q 2069 2156 2228 2338 
Q 2531 2678 2651 2914 
Q 2772 3150 2772 3378 
Q 2772 3750 2511 3984 
Q 2250 4219 1831 4219 
Q 1534 4219 1204 4116 
Q 875 4013 500 3803 
L 500 4441 
Q 881 4594 1212 4672 
Q 1544 4750 1819 4750 
Q 2544 4750 2975 4387 
Q 3406 4025 3406 3419 
Q 3406 3131 3298 2873 
Q 3191 2616 2906 2266 
Q 2828 2175 2409 1742 
Q 1991 1309 1228 531 
z
" id="DejaVuSans-32" transform="scale(0.015625)"/>
       </defs>
       <use xlink:href="#DejaVuSans-30"/>
       <use x="63.623047" xlink:href="#DejaVuSans-2e"/>
       <use x="95.410156" xlink:href="#DejaVuSans-32"/>
      </g>
     </g>
    </g>
    <g id="xtick_3">
     <g id="line2d_3">
      <g>
       <use style="stroke:#000000;stroke-width:0.8;" x="188.784" xlink:href="#medeec289e9" y="378"/>
      </g>
     </g>
     <g id="text_3">
      <!-- 0.4 -->
      <g transform="translate(180.832438 392.598437)scale(0.1 -0.1)">
       <defs>
        <path d="M 2419 4116 
L 825 1625 
L 2419 1625 
L 2419 4116 
z
M 2253 4666 
L 3047 4666 
L 3047 1625 
L 3713 1625 
L 3713 1100 
L 3047 1100 
L 3047 0 
L 2419 0 
L 2419 1100 
L 313 1100 
L 313 1709 
L 2253 4666 
z
" id="DejaVuSans-34" transform="scale(0.015625)"/>
       </defs>
       <use xlink:href="#DejaVuSans-30"/>
       <use x="63.623047" xlink:href="#DejaVuSans-2e"/>
       <use x="95.410156" xlink:href="#DejaVuSans-34"/>
      </g>
     </g>
    </g>
    <g id="xtick_4">
     <g id="line2d_4">
      <g>
       <use style="stroke:#000000;stroke-width:0.8;" x="254.016" xlink:href="#medeec289e9" y="378"/>
      </g>
     </g>
     <g id="text_4">
      <!-- 0.6 -->
      <g transform="translate(246.064438 392.598437)scale(0.1 -0.1)">
       <defs>
        <path d="M 2113 2584 
Q 1688 2584 1439 2293 
Q 1191 2003 1191 1497 
Q 1191 994 1439 701 
Q 1688 409 2113 409 
Q 2538 409 2786 701 
Q 3034 994 3034 1497 
Q 3034 2003 2786 2293 
Q 2538 2584 2113 2584 
z
M 3366 4563 
L 3366 3988 
Q 3128 4100 2886 4159 
Q 2644 4219 2406 4219 
Q 1781 4219 1451 3797 
Q 1122 3375 1075 2522 
Q 1259 2794 1537 2939 
Q 1816 3084 2150 3084 
Q 2853 3084 3261 2657 
Q 3669 2231 3669 1497 
Q 3669 778 3244 343 
Q 2819 -91 2113 -91 
Q 1303 -91 875 529 
Q 447 1150 447 2328 
Q 447 3434 972 4092 
Q 1497 4750 2381 4750 
Q 2619 4750 2861 4703 
Q 3103 4656 3366 4563 
z
" id="DejaVuSans-36" transform="scale(0.015625)"/>
       </defs>
       <use xlink:href="#DejaVuSans-30"/>
       <use x="63.623047" xlink:href="#DejaVuSans-2e"/>
       <use x="95.410156" xlink:href="#DejaVuSans-36"/>
      </g>
     </g>
    </g>
    <g id="xtick_5">
     <g id="line2d_5">
      <g>
       <use style="stroke:#000000;stroke-width:0.8;" x="319.248" xlink:href="#medeec289e9" y="378"/>
      </g>
     </g>
     <g id="text_5">
      <!-- 0.8 -->
      <g transform="translate(311.296438 392.598437)scale(0.1 -0.1)">
       <defs>
        <path d="M 2034 2216 
Q 1584 2216 1326 1975 
Q 1069 1734 1069 1313 
Q 1069 891 1326 650 
Q 1584 409 2034 409 
Q 2484 409 2743 651 
Q 3003 894 3003 1313 
Q 3003 1734 2745 1975 
Q 2488 2216 2034 2216 
z
M 1403 2484 
Q 997 2584 770 2862 
Q 544 3141 544 3541 
Q 544 4100 942 4425 
Q 1341 4750 2034 4750 
Q 2731 4750 3128 4425 
Q 3525 4100 3525 3541 
Q 3525 3141 3298 2862 
Q 3072 2584 2669 2484 
Q 3125 2378 3379 2068 
Q 3634 1759 3634 1313 
Q 3634 634 3220 271 
Q 2806 -91 2034 -91 
Q 1263 -91 848 271 
Q 434 634 434 1313 
Q 434 1759 690 2068 
Q 947 2378 1403 2484 
z
M 1172 3481 
Q 1172 3119 1398 2916 
Q 1625 2713 2034 2713 
Q 2441 2713 2670 2916 
Q 2900 3119 2900 3481 
Q 2900 3844 2670 4047 
Q 2441 4250 2034 4250 
Q 1625 4250 1398 4047 
Q 1172 3844 1172 3481 
z
" id="DejaVuSans-38" transform="scale(0.015625)"/>
       </defs>
       <use xlink:href="#DejaVuSans-30"/>
       <use x="63.623047" xlink:href="#DejaVuSans-2e"/>
       <use x="95.410156" xlink:href="#DejaVuSans-38"/>
      </g>
     </g>
    </g>
    <g id="xtick_6">
     <g id="line2d_6">
      <g>
       <use style="stroke:#000000;stroke-width:0.8;" x="384.48" xlink:href="#medeec289e9" y="378"/>
      </g>
     </g>
     <g id="text_6">
      <!-- 1.0 -->
      <g transform="translate(376.528437 392.598437)scale(0.1 -0.1)">
       <defs>
        <path d="M 794 531 
L 1825 531 
L 1825 4091 
L 703 3866 
L 703 4441 
L 1819 4666 
L 2450 4666 
L 2450 531 
L 3481 531 
L 3481 0 
L 794 0 
L 794 531 
z
" id="DejaVuSans-31" transform="scale(0.015625)"/>
       </defs>
       <use xlink:href="#DejaVuSans-31"/>
       <use x="63.623047" xlink:href="#DejaVuSans-2e"/>
       <use x="95.410156" xlink:href="#DejaVuSans-30"/>
      </g>
     </g>
    </g>
    <g id="text_7">
     <!-- false positive rate -->
     <g transform="translate(176.558594 406.276563)scale(0.1 -0.1)">
      <defs>
       <path d="M 2375 4863 
L 2375 4384 
L 1825 4384 
Q 1516 4384 1395 4259 
Q 1275 4134 1275 3809 
L 1275 3500 
L 2222 3500 
L 2222 3053 
L 1275 3053 
L 1275 0 
L 697 0 
L 697 3053 
L 147 3053 
L 147 3500 
L 697 3500 
L 697 3744 
Q 697 4328 969 4595 
Q 1241 4863 1831 4863 
L 2375 4863 
z
" id="DejaVuSans-66" transform="scale(0.015625)"/>
       <path d="M 2194 1759 
Q 1497 1759 1228 1600 
Q 959 1441 959 1056 
Q 959 750 1161 570 
Q 1363 391 1709 391 
Q 2188 391 2477 730 
Q 2766 1069 2766 1631 
L 2766 1759 
L 2194 1759 
z
M 3341 1997 
L 3341 0 
L 2766 0 
L 2766 531 
Q 2569 213 2275 61 
Q 1981 -91 1556 -91 
Q 1019 -91 701 211 
Q 384 513 384 1019 
Q 384 1609 779 1909 
Q 1175 2209 1959 2209 
L 2766 2209 
L 2766 2266 
Q 2766 2663 2505 2880 
Q 2244 3097 1772 3097 
Q 1472 3097 1187 3025 
Q 903 2953 641 2809 
L 641 3341 
Q 956 3463 1253 3523 
Q 1550 3584 1831 3584 
Q 2591 3584 2966 3190 
Q 3341 2797 3341 1997 
z
" id="DejaVuSans-61" transform="scale(0.015625)"/>
       <path d="M 603 4863 
L 1178 4863 
L 1178 0 
L 603 0 
L 603 4863 
z
" id="DejaVuSans-6c" transform="scale(0.015625)"/>
       <path d="M 2834 3397 
L 2834 2853 
Q 2591 2978 2328 3040 
Q 2066 3103 1784 3103 
Q 1356 3103 1142 2972 
Q 928 2841 928 2578 
Q 928 2378 1081 2264 
Q 1234 2150 1697 2047 
L 1894 2003 
Q 2506 1872 2764 1633 
Q 3022 1394 3022 966 
Q 3022 478 2636 193 
Q 2250 -91 1575 -91 
Q 1294 -91 989 -36 
Q 684 19 347 128 
L 347 722 
Q 666 556 975 473 
Q 1284 391 1588 391 
Q 1994 391 2212 530 
Q 2431 669 2431 922 
Q 2431 1156 2273 1281 
Q 2116 1406 1581 1522 
L 1381 1569 
Q 847 1681 609 1914 
Q 372 2147 372 2553 
Q 372 3047 722 3315 
Q 1072 3584 1716 3584 
Q 2034 3584 2315 3537 
Q 2597 3491 2834 3397 
z
" id="DejaVuSans-73" transform="scale(0.015625)"/>
       <path d="M 3597 1894 
L 3597 1613 
L 953 1613 
Q 991 1019 1311 708 
Q 1631 397 2203 397 
Q 2534 397 2845 478 
Q 3156 559 3463 722 
L 3463 178 
Q 3153 47 2828 -22 
Q 2503 -91 2169 -91 
Q 1331 -91 842 396 
Q 353 884 353 1716 
Q 353 2575 817 3079 
Q 1281 3584 2069 3584 
Q 2775 3584 3186 3129 
Q 3597 2675 3597 1894 
z
M 3022 2063 
Q 3016 2534 2758 2815 
Q 2500 3097 2075 3097 
Q 1594 3097 1305 2825 
Q 1016 2553 972 2059 
L 3022 2063 
z
" id="DejaVuSans-65" transform="scale(0.015625)"/>
       <path id="DejaVuSans-20" transform="scale(0.015625)"/>
       <path d="M 1159 525 
L 1159 -1331 
L 581 -1331 
L 581 3500 
L 1159 3500 
L 1159 2969 
Q 1341 3281 1617 3432 
Q 1894 3584 2278 3584 
Q 2916 3584 3314 3078 
Q 3713 2572 3713 1747 
Q 3713 922 3314 415 
Q 2916 -91 2278 -91 
Q 1894 -91 1617 61 
Q 1341 213 1159 525 
z
M 3116 1747 
Q 3116 2381 2855 2742 
Q 2594 3103 2138 3103 
Q 1681 3103 1420 2742 
Q 1159 2381 1159 1747 
Q 1159 1113 1420 752 
Q 1681 391 2138 391 
Q 2594 391 2855 752 
Q 3116 1113 3116 1747 
z
" id="DejaVuSans-70" transform="scale(0.015625)"/>
       <path d="M 1959 3097 
Q 1497 3097 1228 2736 
Q 959 2375 959 1747 
Q 959 1119 1226 758 
Q 1494 397 1959 397 
Q 2419 397 2687 759 
Q 2956 1122 2956 1747 
Q 2956 2369 2687 2733 
Q 2419 3097 1959 3097 
z
M 1959 3584 
Q 2709 3584 3137 3096 
Q 3566 2609 3566 1747 
Q 3566 888 3137 398 
Q 2709 -91 1959 -91 
Q 1206 -91 779 398 
Q 353 888 353 1747 
Q 353 2609 779 3096 
Q 1206 3584 1959 3584 
z
" id="DejaVuSans-6f" transform="scale(0.015625)"/>
       <path d="M 603 3500 
L 1178 3500 
L 1178 0 
L 603 0 
L 603 3500 
z
M 603 4863 
L 1178 4863 
L 1178 4134 
L 603 4134 
L 603 4863 
z
" id="DejaVuSans-69" transform="scale(0.015625)"/>
       <path d="M 1172 4494 
L 1172 3500 
L 2356 3500 
L 2356 3053 
L 1172 3053 
L 1172 1153 
Q 1172 725 1289 603 
Q 1406 481 1766 481 
L 2356 481 
L 2356 0 
L 1766 0 
Q 1100 0 847 248 
Q 594 497 594 1153 
L 594 3053 
L 172 3053 
L 172 3500 
L 594 3500 
L 594 4494 
L 1172 4494 
z
" id="DejaVuSans-74" transform="scale(0.015625)"/>
       <path d="M 191 3500 
L 800 3500 
L 1894 563 
L 2988 3500 
L 3597 3500 
L 2284 0 
L 1503 0 
L 191 3500 
z
" id="DejaVuSans-76" transform="scale(0.015625)"/>
       <path d="M 2631 2963 
Q 2534 3019 2420 3045 
Q 2306 3072 2169 3072 
Q 1681 3072 1420 2755 
Q 1159 2438 1159 1844 
L 1159 0 
L 581 0 
L 581 3500 
L 1159 3500 
L 1159 2956 
Q 1341 3275 1631 3429 
Q 1922 3584 2338 3584 
Q 2397 3584 2469 3576 
Q 2541 3569 2628 3553 
L 2631 2963 
z
" id="DejaVuSans-72" transform="scale(0.015625)"/>
      </defs>
      <use xlink:href="#DejaVuSans-66"/>
      <use x="35.205078" xlink:href="#DejaVuSans-61"/>
      <use x="96.484375" xlink:href="#DejaVuSans-6c"/>
      <use x="124.267578" xlink:href="#DejaVuSans-73"/>
      <use x="176.367188" xlink:href="#DejaVuSans-65"/>
      <use x="237.890625" xlink:href="#DejaVuSans-20"/>
      <use x="269.677734" xlink:href="#DejaVuSans-70"/>
      <use x="333.154297" xlink:href="#DejaVuSans-6f"/>
      <use x="394.335938" xlink:href="#DejaVuSans-73"/>
      <use x="446.435547" xlink:href="#DejaVuSans-69"/>
      <use x="474.21875" xlink:href="#DejaVuSans-74"/>
      <use x="513.427734" xlink:href="#DejaVuSans-69"/>
      <use x="541.210938" xlink:href="#DejaVuSans-76"/>
      <use x="600.390625" xlink:href="#DejaVuSans-65"/>
      <use x="661.914062" xlink:href="#DejaVuSans-20"/>
      <use x="693.701172" xlink:href="#DejaVuSans-72"/>
      <use x="734.814453" xlink:href="#DejaVuSans-61"/>
      <use x="796.09375" xlink:href="#DejaVuSans-74"/>
      <use x="835.302734" xlink:href="#DejaVuSans-65"/>
     </g>
    </g>
   </g>
   <g id="matplotlib.axis_2">
    <g id="ytick_1">
     <g id="line2d_7">
      <defs>
       <path d="M 0 0 
L -3.5 0 
" id="me3c6cc8576" style="stroke:#000000;stroke-width:0.8;"/>
      </defs>
      <g>
       <use style="stroke:#000000;stroke-width:0.8;" x="58.32" xlink:href="#me3c6cc8576" y="378"/>
      </g>
     </g>
     <g id="text_8">
      <!-- 0.0 -->
      <g transform="translate(35.416875 381.799219)scale(0.1 -0.1)">
       <use xlink:href="#DejaVuSans-30"/>
       <use x="63.623047" xlink:href="#DejaVuSans-2e"/>
       <use x="95.410156" xlink:href="#DejaVuSans-30"/>
      </g>
     </g>
    </g>
    <g id="ytick_2">
     <g id="line2d_8">
      <g>
       <use style="stroke:#000000;stroke-width:0.8;" x="58.32" xlink:href="#me3c6cc8576" y="312.768"/>
      </g>
     </g>
     <g id="text_9">
      <!-- 0.2 -->
      <g transform="translate(35.416875 316.567219)scale(0.1 -0.1)">
       <use xlink:href="#DejaVuSans-30"/>
       <use x="63.623047" xlink:href="#DejaVuSans-2e"/>
       <use x="95.410156" xlink:href="#DejaVuSans-32"/>
      </g>
     </g>
    </g>
    <g id="ytick_3">
     <g id="line2d_9">
      <g>
       <use style="stroke:#000000;stroke-width:0.8;" x="58.32" xlink:href="#me3c6cc8576" y="247.536"/>
      </g>
     </g>
     <g id="text_10">
      <!-- 0.4 -->
      <g transform="translate(35.416875 251.335219)scale(0.1 -0.1)">
       <use xlink:href="#DejaVuSans-30"/>
       <use x="63.623047" xlink:href="#DejaVuSans-2e"/>
       <use x="95.410156" xlink:href="#DejaVuSans-34"/>
      </g>
     </g>
    </g>
    <g id="ytick_4">
     <g id="line2d_10">
      <g>
       <use style="stroke:#000000;stroke-width:0.8;" x="58.32" xlink:href="#me3c6cc8576" y="182.304"/>
      </g>
     </g>
     <g id="text_11">
      <!-- 0.6 -->
      <g transform="translate(35.416875 186.103219)scale(0.1 -0.1)">
       <use xlink:href="#DejaVuSans-30"/>
       <use x="63.623047" xlink:href="#DejaVuSans-2e"/>
       <use x="95.410156" xlink:href="#DejaVuSans-36"/>
      </g>
     </g>
    </g>
    <g id="ytick_5">
     <g id="line2d_11">
      <g>
       <use style="stroke:#000000;stroke-width:0.8;" x="58.32" xlink:href="#me3c6cc8576" y="117.072"/>
      </g>
     </g>
     <g id="text_12">
      <!-- 0.8 -->
      <g transform="translate(35.416875 120.871219)scale(0.1 -0.1)">
       <use xlink:href="#DejaVuSans-30"/>
       <use x="63.623047" xlink:href="#DejaVuSans-2e"/>
       <use x="95.410156" xlink:href="#DejaVuSans-38"/>
      </g>
     </g>
    </g>
    <g id="ytick_6">
     <g id="line2d_12">
      <g>
       <use style="stroke:#000000;stroke-width:0.8;" x="58.32" xlink:href="#me3c6cc8576" y="51.84"/>
      </g>
     </g>
     <g id="text_13">
      <!-- 1.0 -->
      <g transform="translate(35.416875 55.639219)scale(0.1 -0.1)">
       <use xlink:href="#DejaVuSans-31"/>
       <use x="63.623047" xlink:href="#DejaVuSans-2e"/>
       <use x="95.410156" xlink:href="#DejaVuSans-30"/>
      </g>
     </g>
    </g>
    <g id="text_14">
     <!-- true positive rate -->
     <g transform="translate(29.337188 258.127813)rotate(-90)scale(0.1 -0.1)">
      <defs>
       <path d="M 544 1381 
L 544 3500 
L 1119 3500 
L 1119 1403 
Q 1119 906 1312 657 
Q 1506 409 1894 409 
Q 2359 409 2629 706 
Q 2900 1003 2900 1516 
L 2900 3500 
L 3475 3500 
L 3475 0 
L 2900 0 
L 2900 538 
Q 2691 219 2414 64 
Q 2138 -91 1772 -91 
Q 1169 -91 856 284 
Q 544 659 544 1381 
z
M 1991 3584 
L 1991 3584 
z
" id="DejaVuSans-75" transform="scale(0.015625)"/>
      </defs>
      <use xlink:href="#DejaVuSans-74"/>
      <use x="39.208984" xlink:href="#DejaVuSans-72"/>
      <use x="80.322266" xlink:href="#DejaVuSans-75"/>
      <use x="143.701172" xlink:href="#DejaVuSans-65"/>
      <use x="205.224609" xlink:href="#DejaVuSans-20"/>
      <use x="237.011719" xlink:href="#DejaVuSans-70"/>
      <use x="300.488281" xlink:href="#DejaVuSans-6f"/>
      <use x="361.669922" xlink:href="#DejaVuSans-73"/>
      <use x="413.769531" xlink:href="#DejaVuSans-69"/>
      <use x="441.552734" xlink:href="#DejaVuSans-74"/>
      <use x="480.761719" xlink:href="#DejaVuSans-69"/>
      <use x="508.544922" xlink:href="#DejaVuSans-76"/>
      <use x="567.724609" xlink:href="#DejaVuSans-65"/>
      <use x="629.248047" xlink:href="#DejaVuSans-20"/>
      <use x="661.035156" xlink:href="#DejaVuSans-72"/>
      <use x="702.148438" xlink:href="#DejaVuSans-61"/>
      <use x="763.427734" xlink:href="#DejaVuSans-74"/>
      <use x="802.636719" xlink:href="#DejaVuSans-65"/>
     </g>
    </g>
   </g>
   <g id="line2d_13">
    <path clip-path="url(#p43b914fdf4)" d="M 58.32 378 
L 83.151685 149.693158 
L 83.151685 148.970995 
L 83.244688 144.895929 
L 83.33769 144.844346 
L 83.33769 143.91585 
L 83.33769 142.626272 
L 83.430693 142.626272 
L 83.430693 141.697776 
L 83.709701 141.285111 
L 83.988708 138.396457 
L 84.081711 138.086959 
L 84.267716 137.674294 
L 84.453721 137.467961 
L 84.453721 137.364795 
L 84.825731 137.313212 
L 85.011737 136.28155 
L 85.569752 135.559386 
L 85.84876 135.559386 
L 86.22077 135.507803 
L 86.499778 135.095138 
L 86.499778 134.888806 
L 86.499778 134.837223 
L 86.685783 134.78564 
L 86.685783 134.476141 
L 87.522806 131.896986 
L 87.894816 131.845402 
L 88.359829 131.63907 
L 89.010847 131.432738 
L 89.289855 131.432738 
L 89.382857 131.329571 
L 89.568862 131.277988 
L 90.870898 131.123239 
L 91.614919 131.123239 
L 91.893926 131.123239 
L 92.079932 131.071656 
L 92.544944 130.710574 
L 92.916955 130.658991 
L 94.032985 130.452659 
L 94.311993 130.452659 
L 94.311993 130.297909 
L 95.335021 129.936827 
L 95.893037 129.730495 
L 96.265047 129.575746 
L 104.914286 128.544084 
L 105.379299 128.389334 
L 167.877023 109.148834 
L 173.643182 108.942502 
L 174.945218 108.426671 
L 176.712267 108.375088 
L 178.479316 107.91084 
L 181.269393 107.601341 
L 185.826518 107.188676 
L 186.105526 107.08551 
L 194.196749 106.208597 
L 196.335808 106.105431 
L 196.521814 106.053848 
L 196.800821 105.899099 
L 196.986826 105.692766 
L 199.590898 105.5896 
L 199.776903 105.5896 
L 200.427921 105.486434 
L 236.419914 103.526276 
L 236.97793 103.526276 
L 237.256938 103.526276 
L 237.34994 103.526276 
L 237.72195 103.423109 
L 238.837981 103.371526 
L 238.930984 103.165194 
L 239.302994 103.113611 
L 241.256048 102.907278 
L 241.628058 102.855695 
L 242.279076 102.855695 
L 242.465081 102.804112 
L 243.023097 102.649363 
L 243.395107 102.649363 
L 247.673225 102.59778 
L 249.161266 102.391447 
L 251.765338 102.391447 
L 251.951343 102.391447 
L 252.416356 102.288281 
L 384.48 51.84 
" style="fill:none;stroke:#1f77b4;stroke-linecap:square;stroke-width:1.5;"/>
   </g>
   <g id="line2d_14">
    <path clip-path="url(#p43b914fdf4)" d="M 58.32 378 
L 58.413003 376.658839 
L 58.506005 376.658839 
L 58.599008 374.647098 
L 58.69201 374.647098 
L 58.785013 372.016359 
L 58.878015 372.016359 
L 58.971018 368.096043 
L 59.064021 368.096043 
L 59.157023 365.877969 
L 59.250026 365.877969 
L 59.343028 362.989315 
L 59.436031 362.989315 
L 59.529033 357.005675 
L 59.622036 357.005675 
L 59.715038 351.434699 
L 59.901044 351.331533 
L 59.994046 350.351453 
L 60.087049 350.351453 
L 60.180051 333.690109 
L 60.273054 333.690109 
L 60.273054 333.586943 
L 60.366056 324.663065 
L 60.459059 324.663065 
L 60.552062 318.369926 
L 60.645064 318.369926 
L 60.738067 315.687604 
L 60.831069 315.687604 
L 60.924072 312.592617 
L 61.017074 312.592617 
L 61.110077 312.128369 
L 61.20308 312.128369 
L 61.296082 301.811748 
L 61.389085 301.811748 
L 61.482087 300.264254 
L 61.57509 300.264254 
L 61.668092 297.581933 
L 61.854098 297.324017 
L 61.9471 294.229031 
L 62.040103 294.229031 
L 62.133105 291.443543 
L 62.226108 291.443543 
L 62.31911 288.503305 
L 62.412113 288.503305 
L 62.412113 288.451722 
L 62.505115 287.007395 
L 62.691121 286.904229 
L 62.784123 285.614651 
L 62.877126 285.614651 
L 62.970128 284.118741 
L 63.156133 283.912409 
L 63.249136 282.725997 
L 63.342139 282.725997 
L 63.435141 277.980351 
L 63.528144 277.980351 
L 63.621146 277.361354 
L 63.807151 277.206604 
L 63.900154 274.4727 
L 63.993157 274.4727 
L 63.993157 274.369533 
L 63.993157 273.337871 
L 64.272164 273.234705 
L 64.365167 272.82204 
L 64.458169 272.82204 
L 64.551172 271.99671 
L 64.644175 271.945127 
L 64.737177 271.584046 
L 64.83018 271.584046 
L 64.923182 271.222964 
L 65.109187 271.222964 
L 65.109187 271.171381 
L 65.20219 269.262806 
L 65.388195 268.850141 
L 65.481198 268.17956 
L 65.667203 268.17956 
L 65.760205 266.838399 
L 66.132216 266.632067 
L 66.225218 265.445656 
L 66.411223 265.342489 
L 66.504226 250.022306 
L 66.597228 250.022306 
L 66.597228 249.970723 
L 66.690231 248.320063 
L 66.876236 242.284839 
L 67.248246 241.407927 
L 67.341249 239.757267 
L 68.271275 238.31294 
L 68.364277 235.32112 
L 68.45728 235.32112 
L 68.550282 233.979959 
L 68.643285 233.979959 
L 68.643285 233.928376 
L 69.387305 233.464128 
L 69.480308 233.154629 
L 69.573311 232.329299 
L 69.666313 232.329299 
L 69.666313 232.226133 
L 69.852318 230.369141 
L 70.131326 230.111226 
L 70.224328 229.440645 
L 70.503336 229.337479 
L 70.596339 228.408983 
L 70.689341 228.099484 
L 70.782344 227.53207 
L 70.875346 226.087743 
L 71.061352 226.03616 
L 71.154354 225.623495 
L 71.247357 225.623495 
L 71.340359 224.282334 
L 71.433362 224.282334 
L 71.526364 223.869669 
L 71.71237 223.611754 
L 71.805372 222.476926 
L 71.898375 222.476926 
L 71.898375 221.187348 
L 72.08438 221.187348 
L 72.177382 220.465184 
L 72.270385 220.465184 
L 72.363388 219.330356 
L 72.45639 219.330356 
L 72.549393 218.711359 
L 72.642395 218.711359 
L 72.642395 218.556609 
L 72.8284 218.556609 
L 72.8284 218.195527 
L 73.014405 218.195527 
L 73.107408 217.318615 
L 73.386416 217.215448 
L 73.479418 216.286952 
L 73.572421 216.286952 
L 73.572421 216.08062 
L 73.758426 216.08062 
L 73.758426 215.977454 
L 73.851429 215.564789 
L 73.944431 215.564789 
L 73.944431 215.461623 
L 74.037434 214.739459 
L 74.223439 214.687876 
L 74.316441 213.75938 
L 74.595449 213.656214 
L 74.688452 212.727718 
L 74.781454 212.727718 
L 74.781454 212.624552 
L 75.060462 212.572969 
L 75.153464 211.592889 
L 75.246467 211.592889 
L 75.33947 211.334974 
L 75.618477 211.334974 
L 75.71148 210.715977 
L 75.897485 210.715977 
L 75.990488 209.27165 
L 76.08349 209.27165 
L 76.176493 209.065317 
L 76.269495 208.962151 
L 76.4555 208.962151 
L 76.4555 208.704235 
L 76.641506 208.704235 
L 76.641506 208.343154 
L 76.827511 208.343154 
L 76.920513 206.847243 
L 77.013516 206.847243 
L 77.106518 206.021914 
L 77.199521 206.021914 
L 77.199521 205.557666 
L 77.757536 205.402916 
L 77.757536 203.958589 
L 77.943541 203.958589 
L 78.036544 203.236426 
L 78.129547 203.13326 
L 78.222549 202.256347 
L 78.501557 202.256347 
L 78.594559 200.863603 
L 78.687562 200.863603 
L 78.687562 200.760437 
L 78.873567 200.605687 
L 78.873567 199.98669 
L 79.059572 199.935107 
L 79.152575 196.788537 
L 79.33858 196.736954 
L 79.33858 196.633788 
L 79.524585 196.633788 
L 79.617588 195.808458 
L 79.803593 195.808458 
L 79.803593 195.653709 
L 79.989598 195.498959 
L 79.989598 195.137878 
L 80.175603 195.137878 
L 80.175603 195.034711 
L 80.175603 194.67363 
L 80.640616 194.51888 
L 80.640616 194.054632 
L 80.826621 194.054632 
L 80.826621 193.951466 
L 81.477639 193.590384 
L 81.570642 193.126136 
L 81.849649 193.02297 
L 81.942652 191.939725 
L 82.035654 191.939725 
L 82.128657 191.114395 
L 82.407665 191.114395 
L 82.407665 191.062812 
L 82.500667 189.463736 
L 82.59367 189.463736 
L 82.59367 189.412152 
L 82.96568 188.689989 
L 83.151685 188.638406 
L 83.151685 188.53524 
L 83.244688 188.53524 
L 85.569752 188.174158 
L 85.569752 186.678248 
L 85.662754 186.678248 
L 85.84876 186.678248 
L 85.84876 186.420332 
L 86.034765 186.420332 
L 86.034765 186.214 
L 86.22077 186.214 
L 86.313772 185.904501 
L 86.406775 185.904501 
L 86.499778 185.38867 
L 93.660975 184.305425 
L 93.753978 183.789594 
L 94.497998 183.686427 
L 94.497998 183.634844 
L 94.777006 183.634844 
L 94.870009 182.964264 
L 94.963011 182.964264 
L 94.963011 182.809514 
L 95.056014 182.809514 
L 95.335021 182.706348 
L 95.335021 182.500016 
L 95.707032 182.448433 
L 95.707032 181.881019 
L 95.893037 181.777852 
L 95.893037 156.037881 
L 96.35805 155.986298 
L 96.35805 155.934715 
L 96.451052 155.264134 
L 96.637057 155.109385 
L 96.916065 154.490387 
L 97.009068 153.974556 
L 101.008178 153.355559 
L 101.008178 152.788145 
L 101.194183 152.788145 
L 101.287186 152.323897 
L 101.566193 152.220731 
L 101.659196 151.446984 
L 101.845201 151.446984 
L 101.845201 151.395401 
L 101.845201 150.931153 
L 102.682224 150.931153 
L 115.702583 147.939333 
L 115.795586 147.475085 
L 116.632609 146.90767 
L 116.725612 146.649755 
L 116.911617 146.546589 
L 117.004619 146.288673 
L 118.49266 146.030758 
L 118.49266 145.669676 
L 119.143678 145.56651 
L 119.236681 145.41176 
L 119.794696 145.308594 
L 119.887699 144.844346 
L 120.259709 144.74118 
L 120.352712 144.74118 
L 120.352712 144.689597 
L 120.352712 144.380098 
L 120.910727 144.328515 
L 121.00373 143.606351 
L 121.096732 143.606351 
L 121.096732 143.451602 
L 121.189735 143.451602 
L 121.933755 143.451602 
L 121.933755 142.471523 
L 122.491771 142.471523 
L 122.491771 142.368357 
L 122.491771 142.265191 
L 122.956784 142.162024 
L 123.049786 141.130362 
L 123.328794 141.130362 
L 123.328794 140.975613 
L 129.559966 139.686035 
L 129.652968 139.42812 
L 130.117981 139.221787 
L 130.210984 137.210046 
L 130.303986 137.158463 
L 130.396989 136.848964 
L 130.489991 136.848964 
L 130.489991 136.797381 
L 130.582994 136.487882 
L 130.675997 136.487882 
L 131.792027 136.28155 
L 146.486433 132.4644 
L 146.486433 131.690653 
L 147.602464 131.535904 
L 147.695466 130.865323 
L 147.788469 130.710574 
L 148.253482 130.607408 
L 148.346484 130.297909 
L 148.811497 130.246326 
L 148.811497 130.194743 
L 149.64852 129.833661 
L 149.64852 129.730495 
L 150.485543 129.627329 
L 150.485543 129.575746 
L 150.764551 129.472579 
L 150.857553 129.266247 
L 151.415569 129.214664 
L 151.415569 129.163081 
L 151.415569 129.059915 
L 151.601574 129.059915 
L 151.601574 128.595667 
L 194.847767 121.631947 
L 194.94077 120.445535 
L 195.033772 120.445535 
L 195.033772 120.393952 
L 282.177177 79.798045 
L 282.363182 79.798045 
L 282.363182 79.643296 
L 282.921198 79.591713 
L 282.921198 79.54013 
L 282.921198 79.075882 
L 283.107203 79.075882 
L 283.107203 78.972715 
L 283.572216 78.302135 
L 286.083285 77.837887 
L 286.176287 76.599892 
L 286.26929 75.826146 
L 287.385321 75.671396 
L 287.385321 75.413481 
L 287.571326 75.413481 
L 287.571326 75.155565 
L 294.639521 74.949233 
L 295.941557 74.639734 
L 295.941557 74.484985 
L 296.220565 74.484985 
L 296.220565 73.865988 
L 298.545629 73.298573 
L 298.638631 72.627993 
L 298.824636 72.57641 
L 298.917639 72.370077 
L 299.196647 72.318494 
L 299.196647 72.163745 
L 299.475654 72.060579 
L 299.568657 71.802663 
L 299.66166 71.802663 
L 299.66166 71.699497 
L 300.126672 71.596331 
L 300.219675 71.286832 
L 300.591685 71.183666 
L 300.684688 71.132083 
L 311.751993 70.203587 
L 311.844996 70.048838 
L 311.937998 70.048838 
L 311.937998 69.687756 
L 313.519042 69.58459 
L 313.519042 69.481423 
L 313.891052 69.42984 
L 313.984055 69.068759 
L 314.077057 69.068759 
L 314.077057 68.965592 
L 314.54207 68.75926 
L 314.635073 68.501344 
L 315.007083 68.398178 
L 315.100086 68.243429 
L 315.193088 68.243429 
L 315.193088 67.830764 
L 315.472096 67.830764 
L 315.472096 67.779181 
L 315.472096 67.624431 
L 315.751104 67.469682 
L 315.844106 66.850685 
L 317.239145 66.747519 
L 317.332147 65.509524 
L 318.634183 65.509524 
L 318.727186 65.200025 
L 321.05225 65.045276 
L 321.145252 64.11678 
L 321.238255 64.11678 
L 321.238255 64.013614 
L 321.331257 63.858864 
L 321.610265 63.858864 
L 321.610265 63.807281 
L 321.610265 58.236306 
L 322.633293 58.184722 
L 322.633293 58.081556 
L 322.819299 58.081556 
L 322.819299 58.029973 
L 326.539401 57.772058 
L 326.539401 57.565725 
L 326.818409 57.565725 
L 326.818409 57.462559 
L 327.748435 57.410976 
L 327.748435 57.256226 
L 328.213447 57.101477 
L 336.676681 56.740395 
L 336.676681 56.637229 
L 337.885714 56.534063 
L 337.885714 56.379314 
L 337.978717 56.379314 
L 345.046912 56.276147 
L 345.046912 55.605567 
L 346.348948 55.502401 
L 346.44195 55.296068 
L 346.999966 55.192902 
L 351.371086 55.089736 
L 353.138135 54.419155 
L 354.719179 54.264406 
L 354.719179 54.212823 
L 355.277194 54.109657 
L 355.370197 53.954907 
L 355.556202 53.954907 
L 356.486228 53.696992 
L 358.346279 53.593826 
L 358.346279 53.490659 
L 361.229358 53.387493 
L 361.229358 53.33591 
L 361.322361 53.33591 
L 362.717399 53.232744 
L 362.717399 53.181161 
L 364.391446 53.077995 
L 364.391446 53.026412 
L 365.228469 52.923245 
L 365.228469 52.871662 
L 368.297553 52.820079 
L 368.297553 52.716913 
L 371.831651 52.613747 
L 371.924654 52.51058 
L 373.412695 52.407414 
L 373.412695 52.355831 
L 376.481779 52.252665 
L 376.481779 52.201082 
L 380.8529 52.097916 
L 380.8529 52.046332 
L 383.270967 51.943166 
L 383.270967 51.891583 
L 384.48 51.84 
L 384.48 51.84 
" style="fill:none;stroke:#ff7f0e;stroke-linecap:square;stroke-width:1.5;"/>
   </g>
   <g id="line2d_15">
    <path clip-path="url(#p43b914fdf4)" d="M 58.32 378 
L 58.506005 280.869005 
L 58.599008 277.103438 
L 58.785013 277.000272 
L 58.878015 269.365972 
L 59.157023 269.262806 
L 59.250026 258.069271 
L 59.343028 258.069271 
L 59.343028 257.966105 
L 59.436031 255.748031 
L 59.529033 255.748031 
L 59.622036 253.426791 
L 59.715038 253.426791 
L 59.808041 248.062148 
L 59.901044 248.062148 
L 59.994046 242.800671 
L 60.087049 242.800671 
L 60.180051 238.828771 
L 60.273054 232.690381 
L 60.366056 232.690381 
L 60.459059 229.646978 
L 60.552062 229.646978 
L 60.552062 229.543811 
L 60.645064 220.000936 
L 60.738067 220.000936 
L 60.738067 218.762942 
L 61.110077 214.997375 
L 61.296082 211.386557 
L 61.389085 211.386557 
L 61.482087 207.569407 
L 61.57509 207.569407 
L 61.668092 205.660832 
L 61.854098 202.411096 
L 61.9471 202.411096 
L 62.040103 202.15318 
L 62.31911 198.181281 
L 62.412113 198.181281 
L 62.412113 198.129698 
L 62.505115 193.487218 
L 62.598118 193.487218 
L 62.691121 192.19764 
L 62.784123 192.19764 
L 62.784123 191.475477 
L 63.900154 184.56334 
L 63.900154 177.75437 
L 64.179162 174.504634 
L 64.272164 174.504634 
L 64.272164 174.401468 
L 64.365167 173.679304 
L 64.644175 169.29474 
L 64.83018 169.29474 
L 64.83018 169.088407 
L 64.923182 169.088407 
L 65.109187 165.32284 
L 65.853208 161.144609 
L 65.94621 161.144609 
L 65.94621 161.093025 
L 66.132216 157.430625 
L 66.225218 157.430625 
L 66.225218 157.379042 
L 66.969239 154.335638 
L 66.969239 153.097644 
L 67.155244 153.097644 
L 67.806262 150.415322 
L 68.085269 150.312156 
L 68.178272 149.641575 
L 68.271275 149.641575 
L 68.271275 149.486826 
L 68.550282 147.371918 
L 68.736287 147.371918 
L 68.736287 145.979174 
L 69.294303 142.626272 
L 69.480308 142.626272 
L 69.480308 142.523106 
L 70.410334 139.118621 
L 70.503336 139.118621 
L 70.503336 139.015455 
L 70.875346 137.313212 
L 70.968349 136.075217 
L 71.340359 133.702394 
L 71.433362 133.702394 
L 71.433362 133.238146 
L 71.805372 133.031814 
L 72.270385 130.14316 
L 72.270385 129.730495 
L 72.735398 127.667171 
L 73.479418 126.016511 
L 73.479418 125.345931 
L 73.572421 125.345931 
L 74.316441 122.869941 
L 74.688452 122.766775 
L 74.781454 122.457277 
L 75.246467 121.167699 
L 75.33947 120.445535 
L 75.71148 118.640127 
L 75.990488 118.53696 
L 75.990488 118.382211 
L 76.176493 118.382211 
L 76.548503 116.679968 
L 77.013516 116.576802 
L 77.106518 116.164137 
L 77.571531 114.565061 
L 77.664534 113.791314 
L 78.315552 112.39857 
L 78.594559 112.346987 
L 78.687562 111.985905 
L 78.780565 111.985905 
L 79.431583 111.263742 
L 79.431583 110.696328 
L 79.617588 110.696328 
L 79.617588 110.644745 
L 79.71059 110.438412 
L 79.803593 110.438412 
L 79.803593 110.335246 
L 80.640616 108.684586 
L 80.733618 108.684586 
L 80.733618 108.426671 
L 80.919624 108.271922 
L 82.407665 105.899099 
L 82.779675 105.795932 
L 82.779675 105.434851 
L 82.96568 105.434851 
L 82.96568 105.125352 
L 83.430693 103.93894 
L 83.895706 103.887357 
L 83.895706 103.629442 
L 84.174713 102.907278 
L 84.360719 102.907278 
L 84.360719 102.546196 
L 84.639726 102.494613 
L 84.639726 102.236698 
L 85.197742 101.720867 
L 85.290744 101.205036 
L 85.662754 99.657542 
L 86.22077 99.657542 
L 86.22077 99.605959 
L 86.313772 98.883796 
L 86.499778 98.832213 
L 86.499778 98.780629 
L 87.243798 98.367965 
L 87.243798 98.213215 
L 87.336801 98.213215 
L 87.801814 98.110049 
L 87.801814 98.058466 
L 87.894816 98.058466 
L 88.452831 97.645801 
L 88.824842 97.594218 
L 88.824842 97.491052 
L 89.103849 97.387885 
L 89.103849 97.284719 
L 89.382857 97.12997 
L 89.940873 96.356223 
L 90.21988 96.253057 
L 90.21988 96.201474 
L 90.498888 96.098308 
L 90.963901 95.376144 
L 91.242908 95.376144 
L 91.242908 95.169812 
L 91.521916 95.066646 
L 91.614919 94.963479 
L 92.265937 94.602398 
L 92.358939 94.396065 
L 93.47497 94.13815 
L 93.47497 93.9834 
L 94.125988 93.9834 
L 94.125988 93.880234 
L 94.125988 93.828651 
L 94.404996 93.777068 
L 94.404996 93.725485 
L 94.963011 93.31282 
L 95.428024 93.261237 
L 95.428024 93.158071 
L 95.614029 93.158071 
L 95.614029 93.003321 
L 95.893037 92.951738 
L 96.916065 91.971659 
L 96.916065 91.868493 
L 97.47408 91.81691 
L 97.47408 91.765327 
L 97.753088 91.352662 
L 98.125098 91.249495 
L 98.218101 91.146329 
L 98.311104 91.146329 
L 99.427134 90.630498 
L 99.427134 90.321 
L 99.613139 90.321 
L 99.613139 90.16625 
L 100.171155 89.753585 
L 101.566193 89.650419 
L 101.566193 89.547253 
L 102.496219 89.49567 
L 103.519247 89.083005 
L 104.35627 88.979839 
L 104.35627 88.825089 
L 104.449273 88.825089 
L 105.937314 88.464008 
L 106.402327 88.360841 
L 106.402327 88.257675 
L 106.960342 88.257675 
L 106.960342 88.102926 
L 108.076373 87.587095 
L 108.448383 87.587095 
L 108.448383 87.432345 
L 109.006399 87.432345 
L 110.029427 87.226013 
L 110.215432 87.019681 
L 111.796476 86.555433 
L 111.796476 86.452266 
L 112.261488 86.3491 
L 113.098512 85.988018 
L 113.656527 85.884852 
L 115.051565 85.420604 
L 115.144568 85.317438 
L 115.237571 85.214272 
L 115.888589 85.162689 
L 116.818614 84.904773 
L 117.841642 84.801607 
L 119.050676 84.543691 
L 119.050676 84.492108 
L 119.329683 84.440525 
L 120.817725 83.924694 
L 120.817725 83.821528 
L 121.468743 83.769945 
L 122.677776 83.512029 
L 122.677776 83.35728 
L 123.328794 83.305697 
L 123.328794 83.20253 
L 124.723832 83.099364 
L 124.723832 83.047781 
L 125.188845 82.996198 
L 125.281848 82.841449 
L 125.746861 82.789866 
L 127.792917 82.119285 
L 127.792917 81.912953 
L 135.605133 80.829707 
L 135.605133 80.778124 
L 135.791138 80.778124 
L 138.674217 80.262293 
L 140.534269 80.159127 
L 201.543952 61.79554 
L 206.008075 61.640791 
L 206.008075 61.589208 
L 207.961129 61.486041 
L 209.82118 61.279709 
L 211.774234 60.712295 
L 214.192301 60.557545 
L 221.632506 60.144881 
L 222.655535 59.422717 
L 229.444722 58.64897 
L 229.444722 58.597387 
L 229.537725 58.597387 
L 232.234799 58.545804 
L 234.373858 58.133139 
L 234.373858 58.081556 
L 234.652866 58.029973 
L 236.97793 57.823641 
L 239.768007 57.720474 
L 239.861009 57.565725 
L 240.326022 57.462559 
L 240.419025 57.359393 
L 243.023097 57.256226 
L 243.116099 57.15306 
L 245.348161 57.049894 
L 245.348161 56.998311 
L 249.812284 56.895145 
L 249.812284 56.843562 
L 249.905287 56.843562 
L 287.199316 55.244485 
L 287.199316 55.141319 
L 287.757331 55.089736 
L 287.757331 55.038153 
L 299.103644 54.264406 
L 303.381762 54.16124 
L 303.381762 54.109657 
L 307.566878 54.006491 
L 307.566878 53.954907 
L 307.938888 53.954907 
L 313.612044 53.593826 
L 315.193088 53.593826 
L 319.192198 53.439076 
L 319.192198 53.284327 
L 324.028332 53.232744 
L 339.001745 52.820079 
L 348.767015 52.66533 
L 352.766125 52.562164 
L 384.48 51.84 
L 384.48 51.84 
" style="fill:none;stroke:#2ca02c;stroke-linecap:square;stroke-width:1.5;"/>
   </g>
   <g id="line2d_16">
    <path clip-path="url(#p43b914fdf4)" d="M 58.32 378 
L 59.064021 356.954091 
L 59.157023 356.747759 
L 59.250026 355.097099 
L 59.436031 354.684435 
L 59.529033 347.101718 
L 59.622036 347.101718 
L 59.622036 347.050134 
L 59.715038 343.542483 
L 59.808041 343.542483 
L 59.901044 341.066494 
L 59.994046 341.066494 
L 60.087049 339.003169 
L 60.180051 339.003169 
L 60.273054 337.507259 
L 60.366056 337.507259 
L 60.459059 336.114515 
L 60.552062 336.114515 
L 60.645064 333.793275 
L 60.738067 333.793275 
L 60.831069 331.729951 
L 60.924072 331.729951 
L 61.017074 330.904621 
L 61.110077 330.904621 
L 61.20308 330.027708 
L 61.296082 330.027708 
L 61.296082 329.924542 
L 61.389085 328.944463 
L 61.482087 328.944463 
L 61.57509 324.559899 
L 61.668092 324.559899 
L 61.761095 300.419004 
L 61.854098 300.419004 
L 61.9471 299.284175 
L 62.040103 299.284175 
L 62.133105 294.022698 
L 62.226108 294.022698 
L 62.31911 293.610033 
L 62.412113 293.610033 
L 62.505115 287.626393 
L 62.598118 287.626393 
L 62.691121 285.975733 
L 62.784123 285.975733 
L 62.877126 282.364915 
L 62.970128 282.364915 
L 62.970128 281.384836 
L 63.249136 281.384836 
L 63.342139 270.449217 
L 63.435141 270.449217 
L 63.528144 269.314389 
L 63.621146 269.314389 
L 63.714149 266.270985 
L 63.807151 266.270985 
L 63.900154 263.846579 
L 64.086159 263.794996 
L 64.179162 261.628505 
L 64.272164 261.628505 
L 64.365167 258.22402 
L 64.458169 258.22402 
L 64.551172 256.367028 
L 64.644175 256.367028 
L 64.737177 253.478374 
L 64.83018 253.478374 
L 64.923182 233.567294 
L 65.016185 233.567294 
L 65.109187 226.345659 
L 65.295192 226.294076 
L 65.388195 224.076002 
L 65.667203 224.024419 
L 65.760205 220.310435 
L 65.94621 220.258852 
L 66.039213 217.679696 
L 66.132216 217.679696 
L 66.225218 215.719538 
L 66.318221 215.719538 
L 66.411223 212.26347 
L 66.504226 212.26347 
L 66.504226 212.160304 
L 66.597228 208.807402 
L 66.690231 208.807402 
L 66.783234 190.082733 
L 66.969239 189.979567 
L 67.062241 186.317166 
L 67.155244 186.317166 
L 67.248246 181.416771 
L 67.434251 181.365187 
L 67.527254 179.766111 
L 67.713259 179.714528 
L 67.806262 179.508195 
L 67.899264 179.508195 
L 67.899264 175.845795 
L 68.085269 175.845795 
L 68.178272 173.163473 
L 68.271275 173.163473 
L 68.364277 171.719146 
L 68.45728 171.719146 
L 68.45728 171.667563 
L 68.550282 170.584318 
L 68.643285 170.584318 
L 68.736287 168.211495 
L 68.82929 168.211495 
L 68.922293 166.612418 
L 69.015295 166.612418 
L 69.108298 163.723764 
L 69.2013 163.723764 
L 69.294303 162.485769 
L 69.480308 162.434186 
L 69.480308 162.021521 
L 69.666313 162.021521 
L 69.759316 159.751865 
L 69.852318 159.751865 
L 69.945321 157.84329 
L 70.317331 157.740123 
L 70.410334 154.077723 
L 70.503336 154.077723 
L 70.596339 152.891311 
L 70.782344 150.105823 
L 70.968349 150.002657 
L 71.061352 149.486826 
L 71.247357 149.486826 
L 71.247357 149.435243 
L 71.340359 148.455164 
L 71.433362 148.455164 
L 71.433362 148.403581 
L 71.526364 147.423502 
L 71.805372 147.371918 
L 71.898375 146.701338 
L 71.991377 146.701338 
L 72.08438 145.257011 
L 72.177382 145.257011 
L 72.177382 144.947512 
L 72.363388 144.947512 
L 72.45639 144.225349 
L 72.735398 144.225349 
L 72.8284 143.709518 
L 72.921403 143.709518 
L 73.014405 143.038937 
L 73.107408 143.038937 
L 73.200411 138.809122 
L 73.386416 138.757539 
L 73.386416 138.654373 
L 73.572421 138.654373 
L 73.665423 138.035376 
L 73.758426 138.035376 
L 73.851429 137.210046 
L 73.944431 137.210046 
L 74.037434 136.591049 
L 74.223439 136.591049 
L 74.316441 135.714136 
L 74.502447 135.714136 
L 74.595449 135.198305 
L 74.688452 135.198305 
L 74.781454 134.991972 
L 74.874457 134.991972 
L 74.967459 134.527724 
L 75.060462 134.527724 
L 75.153464 131.845402 
L 75.432472 131.742236 
L 75.525475 130.762157 
L 75.618477 130.762157 
L 75.71148 130.452659 
L 76.176493 130.349492 
L 76.269495 129.214664 
L 76.362498 129.214664 
L 76.4555 128.750416 
L 76.548503 128.750416 
L 76.641506 127.667171 
L 76.734508 127.667171 
L 76.734508 126.893424 
L 76.920513 126.893424 
L 77.013516 126.274427 
L 77.106518 126.274427 
L 77.106518 126.016511 
L 77.292524 126.016511 
L 77.292524 125.964928 
L 77.292524 124.933266 
L 77.571531 124.8301 
L 77.571531 124.572184 
L 77.757536 124.572184 
L 77.850539 122.457277 
L 78.129547 122.35411 
L 78.222549 122.199361 
L 78.594559 122.147778 
L 78.687562 118.898042 
L 78.780565 118.898042 
L 78.873567 118.330628 
L 79.152575 118.279045 
L 79.245577 118.124295 
L 79.33858 118.124295 
L 79.431583 116.937884 
L 79.617588 116.886301 
L 79.71059 116.112554 
L 79.896595 116.112554 
L 79.896595 115.751472 
L 80.268606 115.648306 
L 80.361608 115.493557 
L 80.454611 115.493557 
L 80.454611 115.441974 
L 80.547613 115.029309 
L 80.733618 114.977726 
L 80.826621 114.771393 
L 80.919624 114.771393 
L 80.919624 114.668227 
L 81.012626 114.461895 
L 81.384636 114.358728 
L 81.477639 114.255562 
L 81.570642 114.255562 
L 81.663644 113.946064 
L 81.756647 113.946064 
L 81.849649 113.017568 
L 81.942652 113.017568 
L 82.035654 112.708069 
L 82.128657 112.708069 
L 82.128657 112.55332 
L 82.407665 112.295404 
L 82.872678 112.295404 
L 82.872678 112.089072 
L 83.430693 111.985905 
L 83.523695 111.573241 
L 83.988708 111.521657 
L 84.081711 111.263742 
L 84.174713 111.263742 
L 84.267716 110.90266 
L 84.546724 110.799494 
L 84.639726 110.696328 
L 84.732729 109.974164 
L 85.011737 109.922581 
L 85.011737 109.355167 
L 85.197742 109.355167 
L 85.197742 109.148834 
L 85.476749 109.148834 
L 85.569752 108.942502 
L 85.662754 108.942502 
L 85.662754 108.58142 
L 85.941762 108.58142 
L 85.941762 108.426671 
L 86.22077 108.323505 
L 86.22077 108.271922 
L 87.057793 108.168755 
L 87.057793 108.117172 
L 87.336801 108.065589 
L 87.429803 107.75609 
L 87.615808 107.704507 
L 87.615808 107.549758 
L 88.080821 107.446592 
L 88.173824 107.033927 
L 88.545834 106.982344 
L 88.638837 106.827594 
L 89.010847 106.827594 
L 89.010847 106.208597 
L 89.103849 106.208597 
L 89.661865 105.847515 
L 89.661865 105.744349 
L 89.754867 105.744349 
L 89.940873 105.744349 
L 89.940873 105.5896 
L 90.498888 105.383267 
L 90.591891 105.125352 
L 90.684893 105.125352 
L 90.684893 104.919019 
L 90.777896 104.919019 
L 90.963901 104.919019 
L 90.963901 104.76427 
L 92.079932 104.712687 
L 92.079932 104.454771 
L 92.544944 104.454771 
L 93.47497 104.300022 
L 93.567973 103.990523 
L 93.660975 103.990523 
L 93.753978 103.784191 
L 94.311993 103.681025 
L 94.404996 103.474692 
L 95.521027 103.371526 
L 95.521027 103.319943 
L 95.614029 103.319943 
L 95.893037 103.062028 
L 96.265047 102.958861 
L 96.544055 102.804112 
L 103.798255 102.44303 
L 105.007288 101.978782 
L 105.007288 101.669284 
L 166.016972 83.408863 
L 166.016972 83.35728 
L 166.295979 83.254114 
L 166.295979 83.20253 
L 166.66799 83.20253 
L 173.364175 82.428784 
L 173.364175 82.222451 
L 173.55018 82.170868 
L 173.643182 81.964536 
L 174.015192 81.86137 
L 174.015192 81.758203 
L 174.201198 81.758203 
L 174.201198 81.655037 
L 174.2942 81.397122 
L 175.131223 81.345539 
L 175.224226 80.984457 
L 175.782241 80.881291 
L 175.875244 80.674958 
L 176.061249 80.674958 
L 209.542173 79.179048 
L 210.844209 78.766383 
L 213.355278 78.611634 
L 213.355278 78.508467 
L 214.006296 78.405301 
L 214.099299 78.302135 
L 221.446501 77.373639 
L 221.539504 77.167307 
L 222.097519 77.06414 
L 222.097519 76.909391 
L 222.190522 76.909391 
L 222.562532 76.857808 
L 222.655535 76.651476 
L 223.58556 76.651476 
L 223.58556 76.496726 
L 224.422583 76.39356 
L 224.422583 76.187228 
L 224.980599 76.084061 
L 224.980599 76.032478 
L 227.305663 75.929312 
L 227.305663 75.774563 
L 227.491668 75.774563 
L 227.491668 75.72298 
L 227.491668 75.56823 
L 227.863678 75.465064 
L 227.863678 75.413481 
L 228.142686 75.310315 
L 228.421694 75.258732 
L 230.560753 75.052399 
L 230.653755 74.794484 
L 231.025766 74.691317 
L 231.025766 74.588151 
L 231.862789 74.484985 
L 231.862789 74.433402 
L 232.327802 74.381819 
L 232.327802 74.227069 
L 232.420804 74.227069 
L 233.257827 74.123903 
L 233.257827 74.020737 
L 234.09485 73.917571 
L 234.187853 73.762821 
L 234.466861 73.711238 
L 234.466861 73.556489 
L 234.931873 73.504906 
L 235.024876 73.195407 
L 235.117879 73.195407 
L 235.117879 73.040658 
L 237.442943 72.937492 
L 237.442943 72.885909 
L 238.000958 72.885909 
L 238.000958 72.731159 
L 238.651976 72.627993 
L 238.744979 72.473244 
L 239.675004 72.370077 
L 239.768007 71.90583 
L 240.419025 71.854246 
L 240.419025 71.75108 
L 241.070043 71.647914 
L 241.070043 71.596331 
L 245.441163 71.493165 
L 245.441163 71.338415 
L 246.371189 71.235249 
L 246.371189 71.183666 
L 246.743199 71.132083 
L 246.836202 71.028917 
L 247.673225 70.92575 
L 247.673225 70.874167 
L 248.324243 70.771001 
L 248.417246 70.564669 
L 248.603251 70.461502 
L 248.696253 70.203587 
L 250.184294 70.152004 
L 250.184294 69.945671 
L 250.928315 69.894088 
L 250.928315 69.533006 
L 252.602361 69.42984 
L 252.602361 69.378257 
L 253.346382 69.275091 
L 253.346382 69.223508 
L 253.997399 69.223508 
L 253.997399 69.068759 
L 254.462412 68.965592 
L 254.555415 68.862426 
L 254.74142 68.810843 
L 254.74142 68.707677 
L 255.11343 68.604511 
L 255.578443 68.346595 
L 256.229461 68.243429 
L 256.229461 68.140263 
L 257.810505 68.037096 
L 257.810505 67.985513 
L 258.36852 67.882347 
L 258.36852 67.830764 
L 258.74053 67.727598 
L 258.74053 67.676015 
L 259.856561 67.572848 
L 259.856561 67.521265 
L 263.297656 67.418099 
L 263.297656 67.366516 
L 264.320684 67.26335 
L 264.413687 67.1086 
L 265.62272 67.005434 
L 265.715723 66.799102 
L 266.459743 66.695935 
L 266.459743 66.644352 
L 266.738751 66.592769 
L 266.831754 66.334854 
L 267.296766 66.283271 
L 267.296766 66.180104 
L 267.761779 66.076938 
L 267.761779 65.922189 
L 267.854782 65.922189 
L 269.342823 65.819023 
L 269.435825 65.715856 
L 269.993841 65.61269 
L 269.993841 65.561107 
L 271.667887 65.457941 
L 271.76089 65.354775 
L 272.597913 65.303192 
L 272.690915 65.148442 
L 273.434936 65.045276 
L 273.527938 64.993693 
L 273.527938 64.838944 
L 273.992951 64.735777 
L 273.992951 64.632611 
L 275.480992 64.581028 
L 275.480992 64.477862 
L 276.13201 64.477862 
L 276.13201 64.374696 
L 276.13201 64.271529 
L 277.155038 64.168363 
L 277.155038 64.11678 
L 279.3871 64.013614 
L 279.480103 63.807281 
L 280.410128 63.755698 
L 280.410128 63.652532 
L 282.084175 63.600949 
L 282.084175 63.497783 
L 283.38621 63.394616 
L 283.479213 63.29145 
L 283.758221 63.085118 
L 285.804277 62.981952 
L 285.804277 62.878785 
L 286.548298 62.775619 
L 286.548298 62.724036 
L 286.6413 62.724036 
L 287.478323 62.62087 
L 287.571326 62.517704 
L 288.129341 62.414537 
L 288.129341 62.362954 
L 288.222344 62.362954 
L 291.198426 62.259788 
L 291.198426 62.208205 
L 292.314457 62.156622 
L 292.314457 62.001873 
L 294.174508 61.898706 
L 294.174508 61.847123 
L 295.104534 61.79554 
L 295.104534 61.692374 
L 295.941557 61.589208 
L 296.034559 61.486041 
L 297.057588 61.382875 
L 297.057588 61.331292 
L 299.196647 61.228126 
L 299.196647 61.12496 
L 300.312678 61.073377 
L 300.312678 60.918627 
L 303.195757 60.815461 
L 303.28876 60.712295 
L 305.520821 60.609129 
L 305.520821 60.557545 
L 306.729855 60.505962 
L 306.729855 60.402796 
L 307.473875 60.351213 
L 307.566878 60.144881 
L 309.519932 60.041714 
L 309.519932 59.990131 
L 311.100975 59.886965 
L 311.193978 59.783799 
L 312.682019 59.680633 
L 312.682019 59.62905 
L 314.54207 59.525883 
L 314.54207 59.4743 
L 315.751104 59.371134 
L 315.751104 59.319551 
L 317.332147 59.216385 
L 317.42515 59.113218 
L 317.983165 59.010052 
L 317.983165 58.958469 
L 319.099196 58.855303 
L 319.099196 58.80372 
L 319.750214 58.700554 
L 319.750214 58.64897 
L 322.261283 58.545804 
L 322.261283 58.494221 
L 324.214337 58.391055 
L 324.214337 58.287889 
L 325.144363 58.184722 
L 325.144363 58.133139 
L 326.074388 58.029973 
L 326.074388 57.97839 
L 326.725406 57.875224 
L 326.725406 57.823641 
L 329.608486 57.720474 
L 329.608486 57.668891 
L 330.166501 57.565725 
L 330.166501 57.514142 
L 331.468537 57.410976 
L 331.468537 57.359393 
L 331.93355 57.256226 
L 331.93355 57.204643 
L 332.398563 57.101477 
L 332.398563 57.049894 
L 335.93266 56.946728 
L 335.93266 56.895145 
L 339.55976 56.791978 
L 339.55976 56.740395 
L 341.605817 56.637229 
L 341.605817 56.534063 
L 341.977827 56.430897 
L 341.977827 56.379314 
L 342.07083 56.379314 
L 343.837879 56.276147 
L 343.837879 56.224564 
L 344.767904 56.172981 
L 344.767904 55.502401 
L 347.464979 55.399235 
L 347.557981 55.296068 
L 349.511035 55.192902 
L 349.511035 55.141319 
L 351.278084 55.038153 
L 351.371086 54.83182 
L 352.022104 54.728654 
L 352.022104 54.677071 
L 352.673122 54.573905 
L 352.673122 54.522322 
L 356.021215 54.419155 
L 356.021215 54.367572 
L 357.788263 54.264406 
L 357.788263 54.212823 
L 358.439281 54.16124 
L 358.439281 54.058074 
L 361.694371 53.954907 
L 361.694371 53.903324 
L 366.809512 53.800158 
L 366.809512 53.696992 
L 368.204551 53.593826 
L 368.204551 53.542243 
L 369.599589 53.439076 
L 369.599589 53.387493 
L 371.273636 53.284327 
L 371.366638 53.181161 
L 374.714731 53.077995 
L 374.714731 53.026412 
L 376.481779 52.923245 
L 376.481779 52.871662 
L 377.96982 52.768496 
L 378.062823 52.66533 
L 379.643867 52.613747 
L 379.643867 52.51058 
L 380.48089 52.407414 
L 380.48089 52.355831 
L 381.875928 52.252665 
L 381.875928 52.201082 
L 382.805954 52.097916 
L 382.805954 52.046332 
L 383.642977 51.943166 
L 383.642977 51.891583 
L 383.735979 51.891583 
L 384.48 51.891583 
L 384.48 51.84 
" style="fill:none;stroke:#d62728;stroke-linecap:square;stroke-width:1.5;"/>
   </g>
   <g id="patch_3">
    <path d="M 58.32 378 
L 58.32 51.84 
" style="fill:none;stroke:#000000;stroke-linecap:square;stroke-linejoin:miter;stroke-width:0.8;"/>
   </g>
   <g id="patch_4">
    <path d="M 384.48 378 
L 384.48 51.84 
" style="fill:none;stroke:#000000;stroke-linecap:square;stroke-linejoin:miter;stroke-width:0.8;"/>
   </g>
   <g id="patch_5">
    <path d="M 58.32 378 
L 384.48 378 
" style="fill:none;stroke:#000000;stroke-linecap:square;stroke-linejoin:miter;stroke-width:0.8;"/>
   </g>
   <g id="patch_6">
    <path d="M 58.32 51.84 
L 384.48 51.84 
" style="fill:none;stroke:#000000;stroke-linecap:square;stroke-linejoin:miter;stroke-width:0.8;"/>
   </g>
   <g id="legend_1">
    <g id="patch_7">
     <path d="M 168.447188 373 
L 377.48 373 
Q 379.48 373 379.48 371 
L 379.48 313.2875 
Q 379.48 311.2875 377.48 311.2875 
L 168.447188 311.2875 
Q 166.447188 311.2875 166.447188 313.2875 
L 166.447188 371 
Q 166.447188 373 168.447188 373 
z
" style="fill:#ffffff;opacity:0.8;stroke:#cccccc;stroke-linejoin:miter;"/>
    </g>
    <g id="line2d_17">
     <path d="M 170.447188 319.385938 
L 190.447188 319.385938 
" style="fill:none;stroke:#1f77b4;stroke-linecap:square;stroke-width:1.5;"/>
    </g>
    <g id="line2d_18"/>
    <g id="text_15">
     <!-- decision tree (AUC = 0.83) -->
     <g transform="translate(198.447188 322.885938)scale(0.1 -0.1)">
      <defs>
       <path d="M 2906 2969 
L 2906 4863 
L 3481 4863 
L 3481 0 
L 2906 0 
L 2906 525 
Q 2725 213 2448 61 
Q 2172 -91 1784 -91 
Q 1150 -91 751 415 
Q 353 922 353 1747 
Q 353 2572 751 3078 
Q 1150 3584 1784 3584 
Q 2172 3584 2448 3432 
Q 2725 3281 2906 2969 
z
M 947 1747 
Q 947 1113 1208 752 
Q 1469 391 1925 391 
Q 2381 391 2643 752 
Q 2906 1113 2906 1747 
Q 2906 2381 2643 2742 
Q 2381 3103 1925 3103 
Q 1469 3103 1208 2742 
Q 947 2381 947 1747 
z
" id="DejaVuSans-64" transform="scale(0.015625)"/>
       <path d="M 3122 3366 
L 3122 2828 
Q 2878 2963 2633 3030 
Q 2388 3097 2138 3097 
Q 1578 3097 1268 2742 
Q 959 2388 959 1747 
Q 959 1106 1268 751 
Q 1578 397 2138 397 
Q 2388 397 2633 464 
Q 2878 531 3122 666 
L 3122 134 
Q 2881 22 2623 -34 
Q 2366 -91 2075 -91 
Q 1284 -91 818 406 
Q 353 903 353 1747 
Q 353 2603 823 3093 
Q 1294 3584 2113 3584 
Q 2378 3584 2631 3529 
Q 2884 3475 3122 3366 
z
" id="DejaVuSans-63" transform="scale(0.015625)"/>
       <path d="M 3513 2113 
L 3513 0 
L 2938 0 
L 2938 2094 
Q 2938 2591 2744 2837 
Q 2550 3084 2163 3084 
Q 1697 3084 1428 2787 
Q 1159 2491 1159 1978 
L 1159 0 
L 581 0 
L 581 3500 
L 1159 3500 
L 1159 2956 
Q 1366 3272 1645 3428 
Q 1925 3584 2291 3584 
Q 2894 3584 3203 3211 
Q 3513 2838 3513 2113 
z
" id="DejaVuSans-6e" transform="scale(0.015625)"/>
       <path d="M 1984 4856 
Q 1566 4138 1362 3434 
Q 1159 2731 1159 2009 
Q 1159 1288 1364 580 
Q 1569 -128 1984 -844 
L 1484 -844 
Q 1016 -109 783 600 
Q 550 1309 550 2009 
Q 550 2706 781 3412 
Q 1013 4119 1484 4856 
L 1984 4856 
z
" id="DejaVuSans-28" transform="scale(0.015625)"/>
       <path d="M 2188 4044 
L 1331 1722 
L 3047 1722 
L 2188 4044 
z
M 1831 4666 
L 2547 4666 
L 4325 0 
L 3669 0 
L 3244 1197 
L 1141 1197 
L 716 0 
L 50 0 
L 1831 4666 
z
" id="DejaVuSans-41" transform="scale(0.015625)"/>
       <path d="M 556 4666 
L 1191 4666 
L 1191 1831 
Q 1191 1081 1462 751 
Q 1734 422 2344 422 
Q 2950 422 3222 751 
Q 3494 1081 3494 1831 
L 3494 4666 
L 4128 4666 
L 4128 1753 
Q 4128 841 3676 375 
Q 3225 -91 2344 -91 
Q 1459 -91 1007 375 
Q 556 841 556 1753 
L 556 4666 
z
" id="DejaVuSans-55" transform="scale(0.015625)"/>
       <path d="M 4122 4306 
L 4122 3641 
Q 3803 3938 3442 4084 
Q 3081 4231 2675 4231 
Q 1875 4231 1450 3742 
Q 1025 3253 1025 2328 
Q 1025 1406 1450 917 
Q 1875 428 2675 428 
Q 3081 428 3442 575 
Q 3803 722 4122 1019 
L 4122 359 
Q 3791 134 3420 21 
Q 3050 -91 2638 -91 
Q 1578 -91 968 557 
Q 359 1206 359 2328 
Q 359 3453 968 4101 
Q 1578 4750 2638 4750 
Q 3056 4750 3426 4639 
Q 3797 4528 4122 4306 
z
" id="DejaVuSans-43" transform="scale(0.015625)"/>
       <path d="M 678 2906 
L 4684 2906 
L 4684 2381 
L 678 2381 
L 678 2906 
z
M 678 1631 
L 4684 1631 
L 4684 1100 
L 678 1100 
L 678 1631 
z
" id="DejaVuSans-3d" transform="scale(0.015625)"/>
       <path d="M 2597 2516 
Q 3050 2419 3304 2112 
Q 3559 1806 3559 1356 
Q 3559 666 3084 287 
Q 2609 -91 1734 -91 
Q 1441 -91 1130 -33 
Q 819 25 488 141 
L 488 750 
Q 750 597 1062 519 
Q 1375 441 1716 441 
Q 2309 441 2620 675 
Q 2931 909 2931 1356 
Q 2931 1769 2642 2001 
Q 2353 2234 1838 2234 
L 1294 2234 
L 1294 2753 
L 1863 2753 
Q 2328 2753 2575 2939 
Q 2822 3125 2822 3475 
Q 2822 3834 2567 4026 
Q 2313 4219 1838 4219 
Q 1578 4219 1281 4162 
Q 984 4106 628 3988 
L 628 4550 
Q 988 4650 1302 4700 
Q 1616 4750 1894 4750 
Q 2613 4750 3031 4423 
Q 3450 4097 3450 3541 
Q 3450 3153 3228 2886 
Q 3006 2619 2597 2516 
z
" id="DejaVuSans-33" transform="scale(0.015625)"/>
       <path d="M 513 4856 
L 1013 4856 
Q 1481 4119 1714 3412 
Q 1947 2706 1947 2009 
Q 1947 1309 1714 600 
Q 1481 -109 1013 -844 
L 513 -844 
Q 928 -128 1133 580 
Q 1338 1288 1338 2009 
Q 1338 2731 1133 3434 
Q 928 4138 513 4856 
z
" id="DejaVuSans-29" transform="scale(0.015625)"/>
      </defs>
      <use xlink:href="#DejaVuSans-64"/>
      <use x="63.476562" xlink:href="#DejaVuSans-65"/>
      <use x="125" xlink:href="#DejaVuSans-63"/>
      <use x="179.980469" xlink:href="#DejaVuSans-69"/>
      <use x="207.763672" xlink:href="#DejaVuSans-73"/>
      <use x="259.863281" xlink:href="#DejaVuSans-69"/>
      <use x="287.646484" xlink:href="#DejaVuSans-6f"/>
      <use x="348.828125" xlink:href="#DejaVuSans-6e"/>
      <use x="412.207031" xlink:href="#DejaVuSans-20"/>
      <use x="443.994141" xlink:href="#DejaVuSans-74"/>
      <use x="483.203125" xlink:href="#DejaVuSans-72"/>
      <use x="522.066406" xlink:href="#DejaVuSans-65"/>
      <use x="583.589844" xlink:href="#DejaVuSans-65"/>
      <use x="645.113281" xlink:href="#DejaVuSans-20"/>
      <use x="676.900391" xlink:href="#DejaVuSans-28"/>
      <use x="715.914062" xlink:href="#DejaVuSans-41"/>
      <use x="784.322266" xlink:href="#DejaVuSans-55"/>
      <use x="857.515625" xlink:href="#DejaVuSans-43"/>
      <use x="927.339844" xlink:href="#DejaVuSans-20"/>
      <use x="959.126953" xlink:href="#DejaVuSans-3d"/>
      <use x="1042.916016" xlink:href="#DejaVuSans-20"/>
      <use x="1074.703125" xlink:href="#DejaVuSans-30"/>
      <use x="1138.326172" xlink:href="#DejaVuSans-2e"/>
      <use x="1170.113281" xlink:href="#DejaVuSans-38"/>
      <use x="1233.736328" xlink:href="#DejaVuSans-33"/>
      <use x="1297.359375" xlink:href="#DejaVuSans-29"/>
     </g>
    </g>
    <g id="line2d_19">
     <path d="M 170.447188 334.064062 
L 190.447188 334.064062 
" style="fill:none;stroke:#ff7f0e;stroke-linecap:square;stroke-width:1.5;"/>
    </g>
    <g id="line2d_20"/>
    <g id="text_16">
     <!-- boosted decision tree (AUC = 0.75) -->
     <g transform="translate(198.447188 337.564062)scale(0.1 -0.1)">
      <defs>
       <path d="M 3116 1747 
Q 3116 2381 2855 2742 
Q 2594 3103 2138 3103 
Q 1681 3103 1420 2742 
Q 1159 2381 1159 1747 
Q 1159 1113 1420 752 
Q 1681 391 2138 391 
Q 2594 391 2855 752 
Q 3116 1113 3116 1747 
z
M 1159 2969 
Q 1341 3281 1617 3432 
Q 1894 3584 2278 3584 
Q 2916 3584 3314 3078 
Q 3713 2572 3713 1747 
Q 3713 922 3314 415 
Q 2916 -91 2278 -91 
Q 1894 -91 1617 61 
Q 1341 213 1159 525 
L 1159 0 
L 581 0 
L 581 4863 
L 1159 4863 
L 1159 2969 
z
" id="DejaVuSans-62" transform="scale(0.015625)"/>
       <path d="M 525 4666 
L 3525 4666 
L 3525 4397 
L 1831 0 
L 1172 0 
L 2766 4134 
L 525 4134 
L 525 4666 
z
" id="DejaVuSans-37" transform="scale(0.015625)"/>
       <path d="M 691 4666 
L 3169 4666 
L 3169 4134 
L 1269 4134 
L 1269 2991 
Q 1406 3038 1543 3061 
Q 1681 3084 1819 3084 
Q 2600 3084 3056 2656 
Q 3513 2228 3513 1497 
Q 3513 744 3044 326 
Q 2575 -91 1722 -91 
Q 1428 -91 1123 -41 
Q 819 9 494 109 
L 494 744 
Q 775 591 1075 516 
Q 1375 441 1709 441 
Q 2250 441 2565 725 
Q 2881 1009 2881 1497 
Q 2881 1984 2565 2268 
Q 2250 2553 1709 2553 
Q 1456 2553 1204 2497 
Q 953 2441 691 2322 
L 691 4666 
z
" id="DejaVuSans-35" transform="scale(0.015625)"/>
      </defs>
      <use xlink:href="#DejaVuSans-62"/>
      <use x="63.476562" xlink:href="#DejaVuSans-6f"/>
      <use x="124.658203" xlink:href="#DejaVuSans-6f"/>
      <use x="185.839844" xlink:href="#DejaVuSans-73"/>
      <use x="237.939453" xlink:href="#DejaVuSans-74"/>
      <use x="277.148438" xlink:href="#DejaVuSans-65"/>
      <use x="338.671875" xlink:href="#DejaVuSans-64"/>
      <use x="402.148438" xlink:href="#DejaVuSans-20"/>
      <use x="433.935547" xlink:href="#DejaVuSans-64"/>
      <use x="497.412109" xlink:href="#DejaVuSans-65"/>
      <use x="558.935547" xlink:href="#DejaVuSans-63"/>
      <use x="613.916016" xlink:href="#DejaVuSans-69"/>
      <use x="641.699219" xlink:href="#DejaVuSans-73"/>
      <use x="693.798828" xlink:href="#DejaVuSans-69"/>
      <use x="721.582031" xlink:href="#DejaVuSans-6f"/>
      <use x="782.763672" xlink:href="#DejaVuSans-6e"/>
      <use x="846.142578" xlink:href="#DejaVuSans-20"/>
      <use x="877.929688" xlink:href="#DejaVuSans-74"/>
      <use x="917.138672" xlink:href="#DejaVuSans-72"/>
      <use x="956.001953" xlink:href="#DejaVuSans-65"/>
      <use x="1017.525391" xlink:href="#DejaVuSans-65"/>
      <use x="1079.048828" xlink:href="#DejaVuSans-20"/>
      <use x="1110.835938" xlink:href="#DejaVuSans-28"/>
      <use x="1149.849609" xlink:href="#DejaVuSans-41"/>
      <use x="1218.257812" xlink:href="#DejaVuSans-55"/>
      <use x="1291.451172" xlink:href="#DejaVuSans-43"/>
      <use x="1361.275391" xlink:href="#DejaVuSans-20"/>
      <use x="1393.0625" xlink:href="#DejaVuSans-3d"/>
      <use x="1476.851562" xlink:href="#DejaVuSans-20"/>
      <use x="1508.638672" xlink:href="#DejaVuSans-30"/>
      <use x="1572.261719" xlink:href="#DejaVuSans-2e"/>
      <use x="1604.048828" xlink:href="#DejaVuSans-37"/>
      <use x="1667.671875" xlink:href="#DejaVuSans-35"/>
      <use x="1731.294922" xlink:href="#DejaVuSans-29"/>
     </g>
    </g>
    <g id="line2d_21">
     <path d="M 170.447188 348.742188 
L 190.447188 348.742188 
" style="fill:none;stroke:#2ca02c;stroke-linecap:square;stroke-width:1.5;"/>
    </g>
    <g id="line2d_22"/>
    <g id="text_17">
     <!-- random forest (AUC = 0.88) -->
     <g transform="translate(198.447188 352.242188)scale(0.1 -0.1)">
      <defs>
       <path d="M 3328 2828 
Q 3544 3216 3844 3400 
Q 4144 3584 4550 3584 
Q 5097 3584 5394 3201 
Q 5691 2819 5691 2113 
L 5691 0 
L 5113 0 
L 5113 2094 
Q 5113 2597 4934 2840 
Q 4756 3084 4391 3084 
Q 3944 3084 3684 2787 
Q 3425 2491 3425 1978 
L 3425 0 
L 2847 0 
L 2847 2094 
Q 2847 2600 2669 2842 
Q 2491 3084 2119 3084 
Q 1678 3084 1418 2786 
Q 1159 2488 1159 1978 
L 1159 0 
L 581 0 
L 581 3500 
L 1159 3500 
L 1159 2956 
Q 1356 3278 1631 3431 
Q 1906 3584 2284 3584 
Q 2666 3584 2933 3390 
Q 3200 3197 3328 2828 
z
" id="DejaVuSans-6d" transform="scale(0.015625)"/>
      </defs>
      <use xlink:href="#DejaVuSans-72"/>
      <use x="41.113281" xlink:href="#DejaVuSans-61"/>
      <use x="102.392578" xlink:href="#DejaVuSans-6e"/>
      <use x="165.771484" xlink:href="#DejaVuSans-64"/>
      <use x="229.248047" xlink:href="#DejaVuSans-6f"/>
      <use x="290.429688" xlink:href="#DejaVuSans-6d"/>
      <use x="387.841797" xlink:href="#DejaVuSans-20"/>
      <use x="419.628906" xlink:href="#DejaVuSans-66"/>
      <use x="454.833984" xlink:href="#DejaVuSans-6f"/>
      <use x="516.015625" xlink:href="#DejaVuSans-72"/>
      <use x="554.878906" xlink:href="#DejaVuSans-65"/>
      <use x="616.402344" xlink:href="#DejaVuSans-73"/>
      <use x="668.501953" xlink:href="#DejaVuSans-74"/>
      <use x="707.710938" xlink:href="#DejaVuSans-20"/>
      <use x="739.498047" xlink:href="#DejaVuSans-28"/>
      <use x="778.511719" xlink:href="#DejaVuSans-41"/>
      <use x="846.919922" xlink:href="#DejaVuSans-55"/>
      <use x="920.113281" xlink:href="#DejaVuSans-43"/>
      <use x="989.9375" xlink:href="#DejaVuSans-20"/>
      <use x="1021.724609" xlink:href="#DejaVuSans-3d"/>
      <use x="1105.513672" xlink:href="#DejaVuSans-20"/>
      <use x="1137.300781" xlink:href="#DejaVuSans-30"/>
      <use x="1200.923828" xlink:href="#DejaVuSans-2e"/>
      <use x="1232.710938" xlink:href="#DejaVuSans-38"/>
      <use x="1296.333984" xlink:href="#DejaVuSans-38"/>
      <use x="1359.957031" xlink:href="#DejaVuSans-29"/>
     </g>
    </g>
    <g id="line2d_23">
     <path d="M 170.447188 363.420313 
L 190.447188 363.420313 
" style="fill:none;stroke:#d62728;stroke-linecap:square;stroke-width:1.5;"/>
    </g>
    <g id="line2d_24"/>
    <g id="text_18">
     <!-- neural network (AUC = 0.87) -->
     <g transform="translate(198.447188 366.920313)scale(0.1 -0.1)">
      <defs>
       <path d="M 269 3500 
L 844 3500 
L 1563 769 
L 2278 3500 
L 2956 3500 
L 3675 769 
L 4391 3500 
L 4966 3500 
L 4050 0 
L 3372 0 
L 2619 2869 
L 1863 0 
L 1184 0 
L 269 3500 
z
" id="DejaVuSans-77" transform="scale(0.015625)"/>
       <path d="M 581 4863 
L 1159 4863 
L 1159 1991 
L 2875 3500 
L 3609 3500 
L 1753 1863 
L 3688 0 
L 2938 0 
L 1159 1709 
L 1159 0 
L 581 0 
L 581 4863 
z
" id="DejaVuSans-6b" transform="scale(0.015625)"/>
      </defs>
      <use xlink:href="#DejaVuSans-6e"/>
      <use x="63.378906" xlink:href="#DejaVuSans-65"/>
      <use x="124.902344" xlink:href="#DejaVuSans-75"/>
      <use x="188.28125" xlink:href="#DejaVuSans-72"/>
      <use x="229.394531" xlink:href="#DejaVuSans-61"/>
      <use x="290.673828" xlink:href="#DejaVuSans-6c"/>
      <use x="318.457031" xlink:href="#DejaVuSans-20"/>
      <use x="350.244141" xlink:href="#DejaVuSans-6e"/>
      <use x="413.623047" xlink:href="#DejaVuSans-65"/>
      <use x="475.146484" xlink:href="#DejaVuSans-74"/>
      <use x="514.355469" xlink:href="#DejaVuSans-77"/>
      <use x="596.142578" xlink:href="#DejaVuSans-6f"/>
      <use x="657.324219" xlink:href="#DejaVuSans-72"/>
      <use x="698.4375" xlink:href="#DejaVuSans-6b"/>
      <use x="756.347656" xlink:href="#DejaVuSans-20"/>
      <use x="788.134766" xlink:href="#DejaVuSans-28"/>
      <use x="827.148438" xlink:href="#DejaVuSans-41"/>
      <use x="895.556641" xlink:href="#DejaVuSans-55"/>
      <use x="968.75" xlink:href="#DejaVuSans-43"/>
      <use x="1038.574219" xlink:href="#DejaVuSans-20"/>
      <use x="1070.361328" xlink:href="#DejaVuSans-3d"/>
      <use x="1154.150391" xlink:href="#DejaVuSans-20"/>
      <use x="1185.9375" xlink:href="#DejaVuSans-30"/>
      <use x="1249.560547" xlink:href="#DejaVuSans-2e"/>
      <use x="1281.347656" xlink:href="#DejaVuSans-38"/>
      <use x="1344.970703" xlink:href="#DejaVuSans-37"/>
      <use x="1408.59375" xlink:href="#DejaVuSans-29"/>
     </g>
    </g>
   </g>
  </g>
 </g>
 <defs>
  <clipPath id="p43b914fdf4">
   <rect height="326.16" width="326.16" x="58.32" y="51.84"/>
  </clipPath>
 </defs>
</svg>
